<svg width="23" height="23" viewBox="0 0 23 23" fill="none" xmlns="http://www.w3.org/2000/svg">
<path fill-rule="evenodd" clip-rule="evenodd" d="M1.40345 14.8201C2.30206 13.9215 3.52084 13.4167 4.79167 13.4167H12.4583C13.7292 13.4167 14.9479 13.9215 15.8466 14.8201C16.7452 15.7187 17.25 16.9375 17.25 18.2083V20.125C17.25 20.6543 16.8209 21.0833 16.2917 21.0833C15.7624 21.0833 15.3333 20.6543 15.3333 20.125V18.2083C15.3333 17.4458 15.0304 16.7146 14.4913 16.1754C13.9521 15.6362 13.2208 15.3333 12.4583 15.3333H4.79167C4.02917 15.3333 3.2979 15.6362 2.75873 16.1754C2.21957 16.7146 1.91667 17.4458 1.91667 18.2083V20.125C1.91667 20.6543 1.48761 21.0833 0.958333 21.0833C0.42906 21.0833 0 20.6543 0 20.125V18.2083C0 16.9375 0.504835 15.7187 1.40345 14.8201Z" fill="#5A5A5A"/>
<path fill-rule="evenodd" clip-rule="evenodd" d="M8.62498 3.83334C7.03716 3.83334 5.74998 5.12052 5.74998 6.70834C5.74998 8.29616 7.03716 9.58334 8.62498 9.58334C10.2128 9.58334 11.5 8.29616 11.5 6.70834C11.5 5.12052 10.2128 3.83334 8.62498 3.83334ZM3.83331 6.70834C3.83331 4.06197 5.97862 1.91667 8.62498 1.91667C11.2713 1.91667 13.4166 4.06197 13.4166 6.70834C13.4166 9.3547 11.2713 11.5 8.62498 11.5C5.97862 11.5 3.83331 9.3547 3.83331 6.70834Z" fill="#5A5A5A"/>
<path fill-rule="evenodd" clip-rule="evenodd" d="M18.2388 14.26C18.3711 13.7475 18.8938 13.4394 19.4063 13.5717C20.4342 13.8371 21.345 14.4364 21.9954 15.2755C22.6459 16.1146 22.9992 17.1459 23 18.2076L23 20.125C23 20.6543 22.571 21.0833 22.0417 21.0833C21.5124 21.0833 21.0834 20.6543 21.0834 20.125L21.0834 18.209C21.0834 18.209 21.0834 18.2091 21.0834 18.209C21.0828 17.5721 20.8708 16.9532 20.4806 16.4498C20.0903 15.9463 19.5439 15.5867 18.9271 15.4275C18.4146 15.2952 18.1065 14.7725 18.2388 14.26Z" fill="#5A5A5A"/>
<path fill-rule="evenodd" clip-rule="evenodd" d="M14.4049 2.76188C14.5362 2.24914 15.0583 1.93991 15.571 2.07119C16.6017 2.3351 17.5153 2.93453 18.1677 3.775C18.8201 4.61547 19.1742 5.64917 19.1742 6.71312C19.1742 7.77708 18.8201 8.81077 18.1677 9.65124C17.5153 10.4917 16.6017 11.0911 15.571 11.355C15.0583 11.4863 14.5362 11.1771 14.4049 10.6644C14.2737 10.1516 14.5829 9.62956 15.0956 9.49828C15.714 9.33994 16.2622 8.98027 16.6536 8.47599C17.045 7.97171 17.2575 7.35149 17.2575 6.71312C17.2575 6.07475 17.045 5.45453 16.6536 4.95025C16.2622 4.44597 15.714 4.08631 15.0956 3.92797C14.5829 3.79668 14.2737 3.27461 14.4049 2.76188Z" fill="#5A5A5A"/>
</svg>
